# xmcd
#
# Track frame offsets:
#	150
#	15860
#	32482
#	45425
#	63998
#	83100
#	97885
#	111617
#	127748
#	145057
#	157990
#	170861
#	185442
#	204554
#	218429
#
# Disc length: 3111 seconds
#
# Revision: 0
# Processed by: cddbd v1.5.2PL0 Copyright (c) Steve Scherf et al.
# Submitted via: audiograbber 1.83.01
#
DISCID=ba0c250f
DTITLE=Hot Rock - Hot Rock 'N' Roll
DYEAR=2007
DGENRE=Rock and Roll
TTITLE0=That Is Rock And Roll
TTITLE1=Take Good Care Of My Baby
TTITLE2=Maybelline - 30 Days
TTITLE3=Rockabilly Fever
TTITLE4=Bei Mir Bist Du Schoen
TTITLE5=Peppermint Twist
TTITLE6=A Rockin' Good Way
TTITLE7=Sweet Sweet Smile
TTITLE8=Love
TTITLE9=Splish Splash
TTITLE10=Eeny Meeny Miney Moe
TTITLE11=Right Or Wrong
TTITLE12=Americano
TTITLE13=Bony Moronie
TTITLE14=Route 66
EXTD=
EXTT0=
EXTT1=
EXTT2=
EXTT3=
EXTT4=
EXTT5=
EXTT6=
EXTT7=
EXTT8=
EXTT9=
EXTT10=
EXTT11=
EXTT12=
EXTT13=
EXTT14=
PLAYORDER=
